<svg xmlns="http://www.w3.org/2000/svg" width="45.500" height="38.563" viewBox="0 0 45.500 38.563" fill="none">
  <path d="M -0.934 16.389 C -1.582 16.905 -1.69 17.848 -1.174 18.497 C -0.658 19.145 0.285 19.253 0.934 18.737 L 0 17.563 L -0.934 16.389 Z M 20.75 1.063 L 21.684 2.237 C 21.728 2.202 21.77 2.164 21.811 2.124 L 20.75 1.063 Z M 24.25 0.563 L 23.189 1.624 C 23.228 1.663 23.27 1.7 23.313 1.734 L 24.25 0.563 Z M 44.563 18.734 C 45.21 19.252 46.154 19.147 46.671 18.5 C 47.189 17.853 47.084 16.909 46.437 16.392 L 45.5 17.563 L 44.563 18.734 Z M 6.75 18.563 C 6.75 17.734 6.078 17.063 5.25 17.063 C 4.422 17.063 3.75 17.734 3.75 18.563 L 5.25 18.563 L 6.75 18.563 Z M 41.75 17.563 C 41.75 16.735 41.078 16.063 40.25 16.063 C 39.422 16.063 38.75 16.735 38.75 17.563 L 40.25 17.563 L 41.75 17.563 Z M 17.5 38.563 L 17.5 40.063 C 18.328 40.063 19 39.391 19 38.563 L 17.5 38.563 Z M 28 38.563 L 26.5 38.563 C 26.5 39.391 27.172 40.063 28 40.063 L 28 38.563 Z M 14 37.063 C 13.172 37.063 12.5 37.735 12.5 38.563 C 12.5 39.391 13.172 40.063 14 40.063 L 14 38.563 L 14 37.063 Z M 33.25 40.063 C 34.078 40.063 34.75 39.391 34.75 38.563 C 34.75 37.735 34.078 37.063 33.25 37.063 L 33.25 38.563 L 33.25 40.063 Z M 0 17.563 L 0.934 18.737 L 21.684 2.237 L 20.75 1.063 L 19.816 -0.111 L -0.934 16.389 L 0 17.563 Z M 24.25 0.563 L 23.313 1.734 L 44.563 18.734 L 45.5 17.563 L 46.437 16.392 L 25.187 -0.608 L 24.25 0.563 Z M 20.75 1.063 L 21.811 2.124 C 22.18 1.754 22.547 1.565 22.797 1.514 C 22.91 1.491 22.979 1.5 23.018 1.511 C 23.051 1.52 23.108 1.542 23.189 1.624 L 24.25 0.563 L 25.311 -0.498 C 24.403 -1.405 23.257 -1.639 22.203 -1.426 C 21.216 -1.227 20.345 -0.654 19.689 0.002 L 20.75 1.063 Z M 5.25 18.563 L 3.75 18.563 L 3.75 35.938 L 5.25 35.938 L 6.75 35.938 L 6.75 18.563 L 5.25 18.563 Z M 40.25 35.938 L 41.75 35.938 L 41.75 17.563 L 40.25 17.563 L 38.75 17.563 L 38.75 35.938 L 40.25 35.938 Z M 7.875 38.563 L 7.875 40.063 L 17.5 40.063 L 17.5 38.563 L 17.5 37.063 L 7.875 37.063 L 7.875 38.563 Z M 28 38.563 L 28 40.063 L 37.625 40.063 L 37.625 38.563 L 37.625 37.063 L 28 37.063 L 28 38.563 Z M 17.5 38.563 L 19 38.563 L 19 27.188 L 17.5 27.188 L 16 27.188 L 16 38.563 L 17.5 38.563 Z M 20.75 22.563 L 20.75 24.063 L 24.25 24.063 L 24.25 22.563 L 24.25 21.063 L 20.75 21.063 L 20.75 22.563 Z M 28 27.188 L 26.5 27.188 L 26.5 38.563 L 28 38.563 L 29.5 38.563 L 29.5 27.188 L 28 27.188 Z M 24.25 22.563 L 24.25 24.063 C 24.974 24.063 25.394 24.215 25.639 24.364 C 25.879 24.509 26.049 24.711 26.179 24.982 C 26.478 25.602 26.5 26.415 26.5 27.188 L 28 27.188 L 29.5 27.188 C 29.5 26.511 29.522 25.012 28.883 23.682 C 28.545 22.978 28.012 22.295 27.197 21.8 C 26.387 21.308 25.401 21.063 24.25 21.063 L 24.25 22.563 Z M 40.25 35.938 L 38.75 35.938 C 38.75 36.559 38.246 37.063 37.625 37.063 L 37.625 38.563 L 37.625 40.063 C 39.903 40.063 41.75 38.216 41.75 35.938 L 40.25 35.938 Z M 17.5 27.188 L 19 27.188 C 19 26.417 19.018 25.563 19.291 24.909 C 19.413 24.615 19.562 24.429 19.732 24.31 C 19.896 24.195 20.191 24.063 20.75 24.063 L 20.75 22.563 L 20.75 21.063 C 19.684 21.063 18.761 21.327 18.01 21.853 C 17.267 22.375 16.806 23.073 16.522 23.755 C 15.982 25.05 16 26.509 16 27.188 L 17.5 27.188 Z M 5.25 35.938 L 3.75 35.938 C 3.75 38.216 5.597 40.063 7.875 40.063 L 7.875 38.563 L 7.875 37.063 C 7.254 37.063 6.75 36.559 6.75 35.938 L 5.25 35.938 Z M 14 38.563 L 14 40.063 L 33.25 40.063 L 33.25 38.563 L 33.25 37.063 L 14 37.063 L 14 38.563 Z" fill="currentColor" fill-rule="nonzero"></path>
</svg>